# xmcd CD database file
#
# Track frame offsets:
#	150
#	12379
#	23996
#	34136
#	46553
#	59600
#	70487
#	81201
#	91771
#	102975
#	113540
#	124609
#	137191
#	147913
#	160120
#	171195
#	181444
#	192939
#	204691
#	215975
#	227055
#	237422
#	248456
#	258408
#	268758
#	280565
#
# Disc length: 3881 seconds
#
# Revision: 1
# Processed by: cddbd v1.4PL0 Copyright (c) Steve Scherf et al.
# Submitted via: CDex 1.50
#
DISCID=760f271a
DTITLE=Smiley Lewis - Shame, Shame, Shame [CD1 of 4)
DYEAR=1993
DGENRE=Vintage R&B
TTITLE0=Turn On Your Volume, Baby
TTITLE1=Here Comes Smiley
TTITLE2=Tee-Nah-Nah
TTITLE3=Lowdown
TTITLE4=Slide Me Down
TTITLE5=Growing Old
TTITLE6=If You Ever Loved A Woman
TTITLE7=Dirty People
TTITLE8=Where Were You
TTITLE9=My Baby
TTITLE10=Sad Life
TTITLE11=Bee's Boogie
TTITLE12=Don't Jive Me
TTITLE13=My Baby Was Right
TTITLE14=The Bells Are Ringing
TTITLE15=Lillie Mae
TTITLE16=You're Gonna Miss Me
TTITLE17=Gypsy Blues
TTITLE18=You're Not The One
TTITLE19=Gumbo Blues
TTITLE20=Ain't Gonna Do It
TTITLE21=It's So Peaceful
TTITLE22=Caldonia's Party
TTITLE23=Lonesome Highway
TTITLE24=Standing On The Corner
TTITLE25=Oh Baby
EXTD=YEAR: 1993
EXTT0=
EXTT1=
EXTT2=
EXTT3=
EXTT4=
EXTT5=
EXTT6=
EXTT7=
EXTT8=
EXTT9=
EXTT10=
EXTT11=
EXTT12=
EXTT13=
EXTT14=
EXTT15=
EXTT16=
EXTT17=
EXTT18=
EXTT19=
EXTT20=
EXTT21=
EXTT22=
EXTT23=
EXTT24=
EXTT25=
PLAYORDER=
